<svg xmlns="http://www.w3.org/2000/svg" xmlns:xlink="http://www.w3.org/1999/xlink" contentStyleType="text/css" data-diagram-type="SEQUENCE" height="1343px" preserveAspectRatio="none" style="width:1246px;height:1343px;background:#FFFFFF;" version="1.1" viewBox="0 0 1246 1343" width="1246px" zoomAndPan="magnify"><title>Kubernetes first startup &amp; KMS v2</title><defs/><g><text fill="#000000" font-family="sans-serif" font-size="14" font-weight="bold" lengthAdjust="spacing" textLength="272.4053" x="483.0546" y="45.292">Kubernetes first startup &amp; KMS v2</text><text fill="#000000" font-family="sans-serif" font-size="14" font-weight="bold" lengthAdjust="spacing" textLength="569.0166" x="334.7489" y="61.5889">Kubernetes KMS API v2 - k8s.io/kms/apis/v2 &amp; KMS Plugin for PKCS #11</text><rect fill="#F0F8FF" height="1029.3594" style="stroke:#181818;stroke-width:0.5;" width="417.2043" x="240.1191" y="293.4844"/><text fill="#000000" font-family="sans-serif" font-size="13" font-weight="bold" lengthAdjust="spacing" textLength="83.2749" x="407.0839" y="305.5513">kubernetes</text><rect fill="#FFFFFF" height="1029.3594" style="stroke:#181818;stroke-width:0.5;" width="490.0359" x="713.4785" y="293.4844"/><text fill="#000000" font-family="sans-serif" font-size="13" font-weight="bold" lengthAdjust="spacing" textLength="246.6763" x="835.1583" y="305.5513">kms plugin &amp; PKCS #11 TPM/HSM</text><rect fill="transparent" height="833.7813" style="stroke:#000000;stroke-width:1.5;" width="1219.5144" x="10" y="389.2734"/><rect fill="transparent" height="609.5859" style="stroke:#000000;stroke-width:1.5;" width="1199.5144" x="20" y="413.4063"/><rect fill="transparent" height="179.0625" style="stroke:#000000;stroke-width:1.5;" width="975.3953" x="234.1191" y="598.4688"/><rect fill="transparent" height="224.4609" style="stroke:#000000;stroke-width:1.5;" width="975.3953" x="234.1191" y="791.5313"/><rect fill="transparent" height="179.0625" style="stroke:#000000;stroke-width:1.5;" width="975.3953" x="234.1191" y="1036.9922"/><g><title>k8s admin</title><rect fill="transparent" height="867.7813" width="8" x="73.0938" y="372.2734"/><line style="stroke:#000000;stroke-width:0.5;stroke-dasharray:5.0,5.0;" x1="77" x2="77" y1="372.2734" y2="1240.0547"/></g><g><title>kms admin</title><rect fill="transparent" height="867.7813" width="8" x="180.1533" y="372.2734"/><line style="stroke:#000000;stroke-width:0.5;stroke-dasharray:5.0,5.0;" x1="183.1875" x2="183.1875" y1="372.2734" y2="1240.0547"/></g><g><title>k8s apiserver</title><rect fill="transparent" height="867.7813" width="8" x="304.4526" y="372.2734"/><line style="stroke:#000000;stroke-width:0.5;stroke-dasharray:5.0,5.0;" x1="308.1191" x2="308.1191" y1="372.2734" y2="1240.0547"/></g><g><title>etcd</title><rect fill="transparent" height="867.7813" width="8" x="623.6924" y="372.2734"/><line style="stroke:#000000;stroke-width:0.5;stroke-dasharray:5.0,5.0;" x1="627.0613" x2="627.0613" y1="372.2734" y2="1240.0547"/></g><g><title>k8s-kms-plugin (server)</title><rect fill="transparent" height="867.7813" width="8" x="821.5322" y="372.2734"/><line style="stroke:#000000;stroke-width:0.5;stroke-dasharray:5.0,5.0;" x1="825.4785" x2="825.4785" y1="372.2734" y2="1240.0547"/></g><g><title>pkcs11-device</title><rect fill="transparent" height="867.7813" width="8" x="1127.292" y="372.2734"/><line style="stroke:#000000;stroke-width:0.5;stroke-dasharray:5.0,5.0;" x1="1131.0696" x2="1131.0696" y1="372.2734" y2="1240.0547"/></g><text fill="#191970" font-family="Aapex" font-size="17" lengthAdjust="spacing" textLength="88.1875" x="30" y="368.2642">k8s admin</text><ellipse cx="77.0938" cy="300.9844" fill="#191970" rx="8" ry="8" style="stroke:#000000;stroke-width:0.5;"/><path d="M77.0938,308.9844 L77.0938,335.9844 M64.0938,316.9844 L90.0938,316.9844 M77.0938,335.9844 L64.0938,350.9844 M77.0938,335.9844 L90.0938,350.9844 " fill="transparent" style="stroke:#000000;stroke-width:0.5;"/><text fill="#191970" font-family="Aapex" font-size="17" lengthAdjust="spacing" textLength="88.1875" x="30" y="1254.8345">k8s admin</text><ellipse cx="77.0938" cy="1267.3438" fill="#191970" rx="8" ry="8" style="stroke:#000000;stroke-width:0.5;"/><path d="M77.0938,1275.3438 L77.0938,1302.3438 M64.0938,1283.3438 L90.0938,1283.3438 M77.0938,1302.3438 L64.0938,1317.3438 M77.0938,1302.3438 L90.0938,1317.3438 " fill="transparent" style="stroke:#000000;stroke-width:0.5;"/><text fill="#191970" font-family="Aapex" font-size="17" lengthAdjust="spacing" textLength="93.9316" x="134.1875" y="368.2642">kms admin</text><ellipse cx="184.1533" cy="300.9844" fill="#191970" rx="8" ry="8" style="stroke:#000000;stroke-width:0.5;"/><path d="M184.1533,308.9844 L184.1533,335.9844 M171.1533,316.9844 L197.1533,316.9844 M184.1533,335.9844 L171.1533,350.9844 M184.1533,335.9844 L197.1533,350.9844 " fill="transparent" style="stroke:#000000;stroke-width:0.5;"/><text fill="#191970" font-family="Aapex" font-size="17" lengthAdjust="spacing" textLength="93.9316" x="134.1875" y="1254.8345">kms admin</text><ellipse cx="184.1533" cy="1267.3438" fill="#191970" rx="8" ry="8" style="stroke:#000000;stroke-width:0.5;"/><path d="M184.1533,1275.3438 L184.1533,1302.3438 M171.1533,1283.3438 L197.1533,1283.3438 M184.1533,1302.3438 L171.1533,1317.3438 M184.1533,1302.3438 L197.1533,1317.3438 " fill="transparent" style="stroke:#000000;stroke-width:0.5;"/><rect fill="#326CE5" height="33.7891" rx="2.5" ry="2.5" style="stroke:#191970;stroke-width:0.5;" width="128.667" x="244.1191" y="337.4844"/><text fill="#FFFFFF" font-family="Impact" font-size="17" lengthAdjust="spacing" textLength="114.667" x="251.1191" y="360.2642">k8s apiserver</text><rect fill="#326CE5" height="33.7891" rx="2.5" ry="2.5" style="stroke:#191970;stroke-width:0.5;" width="128.667" x="244.1191" y="1239.0547"/><text fill="#FFFFFF" font-family="Impact" font-size="17" lengthAdjust="spacing" textLength="114.667" x="251.1191" y="1261.8345">k8s apiserver</text><rect fill="#326CE5" height="33.7891" rx="2.5" ry="2.5" style="stroke:#191970;stroke-width:0.5;" width="51.2622" x="602.0613" y="337.4844"/><text fill="#FFFFFF" font-family="Impact" font-size="17" lengthAdjust="spacing" textLength="37.2622" x="609.0613" y="360.2642">etcd</text><rect fill="#326CE5" height="33.7891" rx="2.5" ry="2.5" style="stroke:#191970;stroke-width:0.5;" width="51.2622" x="602.0613" y="1239.0547"/><text fill="#FFFFFF" font-family="Impact" font-size="17" lengthAdjust="spacing" textLength="37.2622" x="609.0613" y="1261.8345">etcd</text><rect fill="#326CE5" height="33.7891" rx="2.5" ry="2.5" style="stroke:#191970;stroke-width:0.5;" width="216.1074" x="717.4785" y="337.4844"/><text fill="#FFFFFF" font-family="Impact" font-size="17" lengthAdjust="spacing" textLength="202.1074" x="724.4785" y="360.2642">k8s-kms-plugin (server)</text><rect fill="#326CE5" height="33.7891" rx="2.5" ry="2.5" style="stroke:#191970;stroke-width:0.5;" width="216.1074" x="717.4785" y="1239.0547"/><text fill="#FFFFFF" font-family="Impact" font-size="17" lengthAdjust="spacing" textLength="202.1074" x="724.4785" y="1261.8345">k8s-kms-plugin (server)</text><rect fill="#326CE5" height="33.7891" rx="2.5" ry="2.5" style="stroke:#191970;stroke-width:0.5;" width="136.4448" x="1063.0696" y="337.4844"/><text fill="#FFFFFF" font-family="Impact" font-size="17" lengthAdjust="spacing" textLength="122.4448" x="1070.0696" y="360.2642">pkcs11-device</text><rect fill="#326CE5" height="33.7891" rx="2.5" ry="2.5" style="stroke:#191970;stroke-width:0.5;" width="136.4448" x="1063.0696" y="1239.0547"/><text fill="#FFFFFF" font-family="Impact" font-size="17" lengthAdjust="spacing" textLength="122.4448" x="1070.0696" y="1261.8345">pkcs11-device</text><path d="M10,389.2734 L453.0425,389.2734 L453.0425,396.4063 L443.0425,406.4063 L10,406.4063 L10,389.2734 " fill="#EEEEEE" style="stroke:#000000;stroke-width:1.5;"/><rect fill="transparent" height="833.7813" style="stroke:#000000;stroke-width:1.5;" width="1219.5144" x="10" y="389.2734"/><text fill="#000000" font-family="sans-serif" font-size="13" font-weight="bold" lengthAdjust="spacing" textLength="398.0425" x="25" y="402.3403">KMS v2 &amp; Kubernetes first startup &amp; Status heartbeet</text><path d="M20,413.4063 L84.4429,413.4063 L84.4429,420.5391 L74.4429,430.5391 L20,430.5391 L20,413.4063 " fill="#EEEEEE" style="stroke:#000000;stroke-width:1.5;"/><rect fill="transparent" height="609.5859" style="stroke:#000000;stroke-width:1.5;" width="1199.5144" x="20" y="413.4063"/><text fill="#000000" font-family="sans-serif" font-size="13" font-weight="bold" lengthAdjust="spacing" textLength="19.4429" x="35" y="426.4731">alt</text><text fill="#000000" font-family="sans-serif" font-size="11" font-weight="bold" lengthAdjust="spacing" textLength="220.8755" x="99.4429" y="425.6167">[Generate DEK seed at k8s startup]</text><polygon fill="#000000" points="813.5322,447.6719,823.5322,451.6719,813.5322,455.6719,817.5322,451.6719" style="stroke:#000000;stroke-width:1;"/><line style="stroke:#000000;stroke-width:1;" x1="184.1533" x2="819.5322" y1="451.6719" y2="451.6719"/><text fill="#000000" font-family="DejaVu Sans Mono" font-size="13" lengthAdjust="spacing" textLength="469.5996" x="191.1533" y="446.606">run k8s-kms-plugin serve with a KEK stored on the TPM or HSM</text><polygon fill="#000000" points="296.4526,491.9375,306.4526,495.9375,296.4526,499.9375,300.4526,495.9375" style="stroke:#000000;stroke-width:1;"/><line style="stroke:#000000;stroke-width:1;" x1="77.0938" x2="302.4526" y1="495.9375" y2="495.9375"/><text fill="#000000" font-family="DejaVu Sans Mono" font-size="13" lengthAdjust="spacing" textLength="156.5332" x="84.0938" y="475.7388">deploy/install/start</text><text fill="#000000" font-family="DejaVu Sans Mono" font-size="13" lengthAdjust="spacing" textLength="203.4932" x="84.0938" y="490.8716">a fresh kubernetes cluster</text><line style="stroke:#000000;stroke-width:1;" x1="308.4526" x2="350.4526" y1="570.4688" y2="570.4688"/><line style="stroke:#000000;stroke-width:1;" x1="350.4526" x2="350.4526" y1="570.4688" y2="583.4688"/><line style="stroke:#000000;stroke-width:1;" x1="309.4526" x2="350.4526" y1="583.4688" y2="583.4688"/><polygon fill="#000000" points="319.4526,579.4688,309.4526,583.4688,319.4526,587.4688,315.4526,583.4688" style="stroke:#000000;stroke-width:1;"/><text fill="#000000" font-family="DejaVu Sans Mono" font-size="13" lengthAdjust="spacing" textLength="273.9331" x="315.4526" y="520.0044">generate DEK seed (32 random bytes)</text><text fill="#000000" font-family="DejaVu Sans Mono" font-size="13" lengthAdjust="spacing" textLength="281.7598" x="315.4526" y="535.1372">at startup and cache it ; indefinite</text><text fill="#000000" font-family="DejaVu Sans Mono" font-size="13" lengthAdjust="spacing" textLength="297.4131" x="315.4526" y="550.27">retention until kube-apiserver restart</text><text fill="#000000" font-family="DejaVu Sans Mono" font-size="13" lengthAdjust="spacing" textLength="117.3999" x="315.4526" y="565.4028">or KEK rotation</text><path d="M234.1191,598.4688 L480.7778,598.4688 L480.7778,605.6016 L470.7778,615.6016 L234.1191,615.6016 L234.1191,598.4688 " fill="#EEEEEE" style="stroke:#000000;stroke-width:1.5;"/><rect fill="transparent" height="179.0625" style="stroke:#000000;stroke-width:1.5;" width="975.3953" x="234.1191" y="598.4688"/><text fill="#000000" font-family="sans-serif" font-size="13" font-weight="bold" lengthAdjust="spacing" textLength="201.6587" x="249.1191" y="611.5356">KMS v2 first StatusRequest</text><polygon fill="#000000" points="813.5322,632.7344,823.5322,636.7344,813.5322,640.7344,817.5322,636.7344" style="stroke:#000000;stroke-width:1;"/><line style="stroke:#000000;stroke-width:1;" x1="308.4526" x2="819.5322" y1="636.7344" y2="636.7344"/><text fill="#000000" font-family="DejaVu Sans Mono" font-size="13" lengthAdjust="spacing" textLength="140.8799" x="315.4526" y="631.6685">send StatusRequest</text><polygon fill="#000000" points="1119.292,677,1129.292,681,1119.292,685,1123.292,681" style="stroke:#000000;stroke-width:1;"/><line style="stroke:#000000;stroke-width:1;" x1="825.5322" x2="1125.292" y1="681" y2="681"/><text fill="#000000" font-family="DejaVu Sans Mono" font-size="13" lengthAdjust="spacing" textLength="195.6665" x="832.5322" y="660.8013">validate remote KEK, e.g.</text><text fill="#000000" font-family="DejaVu Sans Mono" font-size="13" lengthAdjust="spacing" textLength="180.0132" x="840.3589" y="675.9341">get CKA_ID from TPM/HSM</text><polygon fill="#000000" points="836.5322,706.1328,826.5322,710.1328,836.5322,714.1328,832.5322,710.1328" style="stroke:#000000;stroke-width:1;"/><line style="stroke:#000000;stroke-width:1;" x1="830.5322" x2="1130.292" y1="710.1328" y2="710.1328"/><text fill="#000000" font-family="DejaVu Sans Mono" font-size="13" lengthAdjust="spacing" textLength="234.7998" x="842.5322" y="705.0669">return KEK status, e.g. CKA_ID</text><polygon fill="#000000" points="319.4526,765.5313,309.4526,769.5313,319.4526,773.5313,315.4526,769.5313" style="stroke:#000000;stroke-width:1;"/><line style="stroke:#000000;stroke-width:1;" x1="313.4526" x2="824.5322" y1="769.5313" y2="769.5313"/><text fill="#000000" font-family="DejaVu Sans Mono" font-size="13" lengthAdjust="spacing" textLength="164.3599" x="325.4526" y="734.1997">return StatusResponse</text><text fill="#000000" font-family="DejaVu Sans Mono" font-size="13" lengthAdjust="spacing" textLength="226.9731" x="333.2793" y="749.3325">{Version:"v2", Healthz: "ok",</text><text fill="#000000" font-family="DejaVu Sans Mono" font-size="13" lengthAdjust="spacing" textLength="226.9731" x="333.2793" y="764.4653">KeyId:&lt;remote KEK ID string&gt;}</text><path d="M234.1191,791.5313 L512.1479,791.5313 L512.1479,798.6641 L502.1479,808.6641 L234.1191,808.6641 L234.1191,791.5313 " fill="#EEEEEE" style="stroke:#000000;stroke-width:1.5;"/><rect fill="transparent" height="224.4609" style="stroke:#000000;stroke-width:1.5;" width="975.3953" x="234.1191" y="791.5313"/><text fill="#000000" font-family="sans-serif" font-size="13" font-weight="bold" lengthAdjust="spacing" textLength="233.0288" x="249.1191" y="804.5981">KMS v2 first Encrypts DEK Seed</text><polygon fill="#000000" points="813.5322,840.9297,823.5322,844.9297,813.5322,848.9297,817.5322,844.9297" style="stroke:#000000;stroke-width:1;"/><line style="stroke:#000000;stroke-width:1;" x1="308.4526" x2="819.5322" y1="844.9297" y2="844.9297"/><text fill="#000000" font-family="DejaVu Sans Mono" font-size="13" lengthAdjust="spacing" textLength="148.7065" x="315.4526" y="824.731">send EncryptRequest</text><text fill="#000000" font-family="DejaVu Sans Mono" font-size="13" lengthAdjust="spacing" textLength="360.0264" x="323.2793" y="839.8638">{Plaintext:&lt;DEK seed as []byte&gt;, Uid:&lt;string&gt;}</text><polygon fill="#000000" points="1119.292,885.1953,1129.292,889.1953,1119.292,893.1953,1123.292,889.1953" style="stroke:#000000;stroke-width:1;"/><line style="stroke:#000000;stroke-width:1;" x1="825.5322" x2="1125.292" y1="889.1953" y2="889.1953"/><text fill="#000000" font-family="DejaVu Sans Mono" font-size="13" lengthAdjust="spacing" textLength="140.8799" x="832.5322" y="868.9966">Encrypt(Plaintext)</text><text fill="#000000" font-family="DejaVu Sans Mono" font-size="13" lengthAdjust="spacing" textLength="250.4531" x="840.3589" y="884.1294">encrypt DEK seed with remote KEK</text><polygon fill="#000000" points="836.5322,929.4609,826.5322,933.4609,836.5322,937.4609,832.5322,933.4609" style="stroke:#000000;stroke-width:1;"/><line style="stroke:#000000;stroke-width:1;" x1="830.5322" x2="1130.292" y1="933.4609" y2="933.4609"/><text fill="#000000" font-family="DejaVu Sans Mono" font-size="13" lengthAdjust="spacing" textLength="273.9331" x="842.5322" y="913.2622">return encrypted DEK seed &amp; KEK ID,</text><text fill="#000000" font-family="DejaVu Sans Mono" font-size="13" lengthAdjust="spacing" textLength="86.0933" x="850.3589" y="928.395">e.g. CKA_ID</text><polygon fill="#000000" points="319.4526,1003.9922,309.4526,1007.9922,319.4526,1011.9922,315.4526,1007.9922" style="stroke:#000000;stroke-width:1;"/><line style="stroke:#000000;stroke-width:1;" x1="313.4526" x2="824.5322" y1="1007.9922" y2="1007.9922"/><text fill="#000000" font-family="DejaVu Sans Mono" font-size="13" lengthAdjust="spacing" textLength="172.1865" x="325.4526" y="957.5278">return EncryptResponse</text><text fill="#000000" font-family="DejaVu Sans Mono" font-size="13" lengthAdjust="spacing" textLength="485.2529" x="333.2793" y="972.6606">{Ciphertext:&lt;encrypted DEK seed as base64 encoded JWE []byte&gt;,</text><text fill="#000000" font-family="DejaVu Sans Mono" font-size="13" lengthAdjust="spacing" textLength="258.2798" x="333.2793" y="987.7935">KeyId: &lt;remote KEK ID as string&gt;,</text><text fill="#000000" font-family="DejaVu Sans Mono" font-size="13" lengthAdjust="spacing" textLength="258.2798" x="333.2793" y="1002.9263">Annotations: &lt;map[string][]byte&gt;}</text><path d="M234.1191,1036.9922 L310.7432,1036.9922 L310.7432,1044.125 L300.7432,1054.125 L234.1191,1054.125 L234.1191,1036.9922 " fill="#EEEEEE" style="stroke:#000000;stroke-width:1.5;"/><rect fill="transparent" height="179.0625" style="stroke:#000000;stroke-width:1.5;" width="975.3953" x="234.1191" y="1036.9922"/><text fill="#000000" font-family="sans-serif" font-size="13" font-weight="bold" lengthAdjust="spacing" textLength="31.624" x="249.1191" y="1050.0591">loop</text><text fill="#000000" font-family="sans-serif" font-size="11" font-weight="bold" lengthAdjust="spacing" textLength="558.9053" x="325.7432" y="1049.2026">[every minute when plugin is healthy or every 10 seconds when the plugin is not healthy]</text><polygon fill="#000000" points="813.5322,1071.2578,823.5322,1075.2578,813.5322,1079.2578,817.5322,1075.2578" style="stroke:#000000;stroke-width:1;"/><line style="stroke:#000000;stroke-width:1;" x1="308.4526" x2="819.5322" y1="1075.2578" y2="1075.2578"/><text fill="#000000" font-family="DejaVu Sans Mono" font-size="13" lengthAdjust="spacing" textLength="140.8799" x="315.4526" y="1070.1919">send StatusRequest</text><polygon fill="#000000" points="1119.292,1115.5234,1129.292,1119.5234,1119.292,1123.5234,1123.292,1119.5234" style="stroke:#000000;stroke-width:1;"/><line style="stroke:#000000;stroke-width:1;" x1="825.5322" x2="1125.292" y1="1119.5234" y2="1119.5234"/><text fill="#000000" font-family="DejaVu Sans Mono" font-size="13" lengthAdjust="spacing" textLength="195.6665" x="832.5322" y="1099.3247">validate remote KEK, e.g.</text><text fill="#000000" font-family="DejaVu Sans Mono" font-size="13" lengthAdjust="spacing" textLength="180.0132" x="840.3589" y="1114.4575">get CKA_ID from TPM/HSM</text><polygon fill="#000000" points="836.5322,1144.6563,826.5322,1148.6563,836.5322,1152.6563,832.5322,1148.6563" style="stroke:#000000;stroke-width:1;"/><line style="stroke:#000000;stroke-width:1;" x1="830.5322" x2="1130.292" y1="1148.6563" y2="1148.6563"/><text fill="#000000" font-family="DejaVu Sans Mono" font-size="13" lengthAdjust="spacing" textLength="234.7998" x="842.5322" y="1143.5903">return KEK status, e.g. CKA_ID</text><polygon fill="#000000" points="319.4526,1204.0547,309.4526,1208.0547,319.4526,1212.0547,315.4526,1208.0547" style="stroke:#000000;stroke-width:1;"/><line style="stroke:#000000;stroke-width:1;" x1="313.4526" x2="824.5322" y1="1208.0547" y2="1208.0547"/><text fill="#000000" font-family="DejaVu Sans Mono" font-size="13" lengthAdjust="spacing" textLength="164.3599" x="325.4526" y="1172.7231">return StatusResponse</text><text fill="#000000" font-family="DejaVu Sans Mono" font-size="13" lengthAdjust="spacing" textLength="226.9731" x="333.2793" y="1187.856">{Version:"v2", Healthz: "ok",</text><text fill="#000000" font-family="DejaVu Sans Mono" font-size="13" lengthAdjust="spacing" textLength="226.9731" x="333.2793" y="1202.9888">KeyId:&lt;remote KEK ID string&gt;}</text><text fill="#000000" font-family="sans-serif" font-size="14" lengthAdjust="spacing" textLength="356.1797" x="882.3347" y="17.9951">Kubernetes KMS v2 &amp; k8s-kms-plugin Figure 1 of 1</text><text fill="#888888" font-family="sans-serif" font-size="10" lengthAdjust="spacing" textLength="228.8184" x="504.848" y="1333.126">© 2025 Thales Group for Thales Open Source</text><rect fill="transparent" height="191.5938" id="_legend" rx="7.5" ry="7.5" style="stroke:#000000;stroke-width:1;" width="816.146" x="12" y="87.8906"/><text fill="#000000" font-family="DejaVu Sans Mono" font-size="13" lengthAdjust="spacing" textLength="46.96" x="17" y="104.9575">Legend</text><text fill="#000000" font-family="DejaVu Sans Mono" font-size="13" lengthAdjust="spacing" textLength="563.5195" x="17" y="120.0903">CKA_ID (Byte array) PKCS #11 Key identifier for public/private key pairs</text><text fill="#000000" font-family="DejaVu Sans Mono" font-size="13" lengthAdjust="spacing" textLength="203.4932" x="17" y="135.2231">DEK    Data Encryption Key</text><text fill="#000000" font-family="DejaVu Sans Mono" font-size="13" lengthAdjust="spacing" textLength="203.4932" x="17" y="150.356">JWE    JSON Web Encryption</text><text fill="#000000" font-family="DejaVu Sans Mono" font-size="13" lengthAdjust="spacing" textLength="195.6665" x="17" y="165.4888">KEK    Key Encryption Key</text><text fill="#000000" font-family="DejaVu Sans Mono" font-size="13" lengthAdjust="spacing" textLength="219.1465" x="17" y="180.6216">KMS    Key Management System</text><text fill="#000000" font-family="DejaVu Sans Mono" font-size="13" lengthAdjust="spacing" textLength="242.6265" x="17" y="195.7544">HSM    Hardware Security Module</text><text fill="#000000" font-family="DejaVu Sans Mono" font-size="13" lengthAdjust="spacing" textLength="234.7998" x="17" y="210.8872">TPM    Trusted Platform Module</text><text fill="#000000" font-family="DejaVu Sans Mono" font-size="13" lengthAdjust="spacing" textLength="7.8267" x="17" y="226.02"> </text><text fill="#000000" font-family="DejaVu Sans Mono" font-size="13" lengthAdjust="spacing" textLength="688.7461" x="17" y="241.1528">PKCS #11 v3.0: https://docs.oasis-open.org/pkcs11/pkcs11-base/v3.0/pkcs11-base-v3.0.html</text><text fill="#000000" font-family="DejaVu Sans Mono" font-size="13" lengthAdjust="spacing" textLength="586.9995" x="17" y="256.2856">KMS v2: - https://kubernetes.io/docs/tasks/administer-cluster/kms-provider/</text><text fill="#000000" font-family="DejaVu Sans Mono" font-size="13" lengthAdjust="spacing" textLength="743.5327" x="79.6133" y="271.4185">- https://github.com/kubernetes/enhancements/tree/master/keps/sig-auth/3299-kms-v2-improvements</text><!--SRC=[pLVTSjD65BxNKvo6WIGps28EK72Jp9WaG9e4CdM02s0wQ-b8sbhQLNTN3eRXWVeQVRAUNQrasGcXb7JQt2ZQy_UTls_bzTqR_LiFrdTtuIndmhmwFO5HMI9JJ4G89JqBDAWqVBF3cqMefrmuDA0p5iiBBb98MAunM5-89YoQfafM8jwNkLHWA0jD8XGc2DO11Pla24mfUQ512j2K7EGumpnO_w5KB2qO69GVoR32e1CpnnH539y2WATIc37_YB2rxTzUM2y7-1jxNS6O0iAf599aJwIAKTL89Zb1isSh22yoRZ3ut8sbyVSARV4_1IEBj5PyuXoC8YDLrszzVC8JFE42hv6inBqrUdomV_0q2CwOCZpY9VM-QttAOy7Jp3p9gH1TdLK_suE7-uSFkYfjIOwAaaLcLLJNxiVLusuvV9ehePOWEOs5tTMo9bHxu62DM8aVbalkwlpbLWOtFyvsuSwveMcyEOStYz1OT3In0CVL19KW5j2GSAKDQ4Ezgqgu0yUdOvWDLhNiwUZiY2JGW-aZtUSod1OwP2NN8HtMTcTvbN812RNlx7X_3BUsjWAxP7NWJdUU8wEvN3JqVf2v4zX9w0mYEm6xRi7sLa2uM0IWHz5xPHtlAKyhXN2xP2dU1fd0xPnfuzvsGkjmBqYa9Cg3F_-0mRt10pZFM4uEdz4ibWwkFtXPee2nh5I4bbrE74S4dYgCB8ar4kDguqNst_tZqQz71x3nP6uS4x7vPfi-7ECSU4ninHDE06oiifhaF0fBnMUCBAQaKJBgWdDsS7Zi7immE1IHcfU64wsH6oV- -SsXUunVle0tEEcer1shhMtGAunj_Rpqb0agJq6uO3pN1Wkdy7nywXvCnHT4iJ36g5BSaBgCApywvsTEvrnLP1RRAyPGKaMZudJQx6VR_Nj3o8mfzJ0COndflcIQwvwaGlUbIiDo6kcjBV_eJPZ6q1fr3thse9-P8c-pc0s6D8UDtsax8dOiRPJGC3sbwOmBBZZXLBqejtXLwCP6oHdrH8NEN_Ety9ToarMJVYIBZkiGHMOlK5ipygyGmuBLBh7KeUPfZrKc2xS7Zn-xuPmDUhomeMeJjmZr9FrBv3DkRfcOizJTdKZReU7_GJwkripIDgpH_eBhpHemRRUPBKcB9Mb1KYUUo0yaR1koHZSUxH6w2w9fOhcuWdmO8YXKCrHjA3fGiwiDq4InqxF_E1NRD8eRT14GF4yyTnQJJciHqleGg2H9lWYdoreRDQxD9iioJw-sywiGuuooTTebyUeIElkIEZ9hEV8QYXyRPYeDHBdAJ11D6vRb1fwXG6LvoJAHHbfnPcpT6ljWQMbiTw2tv_7345GbLkdPvGaNj5J074DfQZFv9MOo6Jf2eRPJyPOzF_AUcvQHynZBNCv36ch3yZnqYE2TO90er1aiPWFykb_oM7jQSPjUIdbZUm3qeHbBMY9YTRr9GHOL9054B2BitC1Fm4MC2V4CENWd58KNZdKhUkGEKwyTGY2S7ZIbR6kX93N3qlSIrALUrkshc_QBtN5jbfGlvzOqGzi1-OfXhKjMD5HaCcCvZsqj51PqPLgCTm7xQPyWKw5CSzibYchZX_wIK-jgQIZGL4hutbiqtcNjwnfCtIvv9qqwkfH2suh3fzVqOuPAE5oR3TRksc-Bt6GVXx0cf_Jwpjr_H_5mPv4HK0BQAFh1iVTvAReZvwyqmb-isatBcARbMvhXZNqt77gwGRam-C4CTnOhf-7jUpjvUtVX5IViLwAzgdy-m4RhTTC6mVfqCU1k6nS5-RiTz7x8GUlfZY-eg_G_xcfRbqvRztcPeQehSqLWgf7zEdXutwAICPtOZwEcR6tROQNlJ3UjTuX7GlWDrAHQiF9jBNtl7Lqp7qilkQIlG_hPgUP0DrT5yIuo-fRq5CWTsz9OpYtLrMfRzoYFI8fOrwgM2nVgXAen2RvxqMzyoRzZmV-RvMw-rUdv5m00]--></g></svg>