<svg xmlns="http://www.w3.org/2000/svg" xmlns:xlink="http://www.w3.org/1999/xlink" contentStyleType="text/css" data-diagram-type="SEQUENCE" height="1303px" preserveAspectRatio="none" style="width:1229px;height:1303px;background:#FFFFFF;" version="1.1" viewBox="0 0 1229 1303" width="1229px" zoomAndPan="magnify"><title>KMS v2 Decrypt Request &amp; Response</title><defs/><g><text fill="#000000" font-family="sans-serif" font-size="14" font-weight="bold" lengthAdjust="spacing" textLength="293.2959" x="464.0117" y="45.292">KMS v2 Decrypt Request &amp; Response</text><text fill="#000000" font-family="sans-serif" font-size="14" font-weight="bold" lengthAdjust="spacing" textLength="569.0166" x="326.1514" y="61.5889">Kubernetes KMS API v2 - k8s.io/kms/apis/v2 &amp; KMS Plugin for PKCS #11</text><rect fill="#F0F8FF" height="989.6953" style="stroke:#181818;stroke-width:0.5;" width="487.6443" x="230.1191" y="293.4844"/><text fill="#000000" font-family="sans-serif" font-size="13" font-weight="bold" lengthAdjust="spacing" textLength="83.2749" x="432.3038" y="305.5513">kubernetes</text><rect fill="#FFFFFF" height="989.6953" style="stroke:#181818;stroke-width:0.5;" width="466.5559" x="719.7634" y="293.4844"/><text fill="#000000" font-family="sans-serif" font-size="13" font-weight="bold" lengthAdjust="spacing" textLength="246.6763" x="829.7032" y="305.5513">kms plugin &amp; PKCS #11 TPM/HSM</text><rect fill="transparent" height="794.1172" style="stroke:#000000;stroke-width:1.5;" width="1202.3193" x="10" y="389.2734"/><rect fill="transparent" height="179.0625" style="stroke:#000000;stroke-width:1.5;" width="968.2002" x="224.1191" y="573.3359"/><rect fill="transparent" height="351.7266" style="stroke:#000000;stroke-width:1.5;" width="988.2002" x="214.1191" y="824.6641"/><rect fill="transparent" height="194.1953" style="stroke:#000000;stroke-width:1.5;" width="968.2002" x="224.1191" y="848.7969"/><g><title>k8s admin</title><rect fill="transparent" height="828.1172" width="8" x="63.0938" y="372.2734"/><line style="stroke:#000000;stroke-width:0.5;stroke-dasharray:5.0,5.0;" x1="67" x2="67" y1="372.2734" y2="1200.3906"/></g><g><title>kms admin</title><rect fill="transparent" height="828.1172" width="8" x="170.1533" y="372.2734"/><line style="stroke:#000000;stroke-width:0.5;stroke-dasharray:5.0,5.0;" x1="173.1875" x2="173.1875" y1="372.2734" y2="1200.3906"/></g><g><title>k8s apiserver</title><rect fill="transparent" height="828.1172" width="8" x="294.4526" y="372.2734"/><line style="stroke:#000000;stroke-width:0.5;stroke-dasharray:5.0,5.0;" x1="298.1191" x2="298.1191" y1="372.2734" y2="1200.3906"/></g><g><title>etcd</title><rect fill="transparent" height="828.1172" width="8" x="684.1323" y="372.2734"/><line style="stroke:#000000;stroke-width:0.5;stroke-dasharray:5.0,5.0;" x1="687.5012" x2="687.5012" y1="372.2734" y2="1200.3906"/></g><g><title>k8s-kms-plugin (server)</title><rect fill="transparent" height="828.1172" width="8" x="827.8171" y="372.2734"/><line style="stroke:#000000;stroke-width:0.5;stroke-dasharray:5.0,5.0;" x1="831.7634" x2="831.7634" y1="372.2734" y2="1200.3906"/></g><g><title>pkcs11-device</title><rect fill="transparent" height="828.1172" width="8" x="1110.0969" y="372.2734"/><line style="stroke:#000000;stroke-width:0.5;stroke-dasharray:5.0,5.0;" x1="1113.8745" x2="1113.8745" y1="372.2734" y2="1200.3906"/></g><text fill="#191970" font-family="Aapex" font-size="17" lengthAdjust="spacing" textLength="88.1875" x="20" y="368.2642">k8s admin</text><ellipse cx="67.0938" cy="300.9844" fill="#191970" rx="8" ry="8" style="stroke:#000000;stroke-width:0.5;"/><path d="M67.0938,308.9844 L67.0938,335.9844 M54.0938,316.9844 L80.0938,316.9844 M67.0938,335.9844 L54.0938,350.9844 M67.0938,335.9844 L80.0938,350.9844 " fill="transparent" style="stroke:#000000;stroke-width:0.5;"/><text fill="#191970" font-family="Aapex" font-size="17" lengthAdjust="spacing" textLength="88.1875" x="20" y="1215.1704">k8s admin</text><ellipse cx="67.0938" cy="1227.6797" fill="#191970" rx="8" ry="8" style="stroke:#000000;stroke-width:0.5;"/><path d="M67.0938,1235.6797 L67.0938,1262.6797 M54.0938,1243.6797 L80.0938,1243.6797 M67.0938,1262.6797 L54.0938,1277.6797 M67.0938,1262.6797 L80.0938,1277.6797 " fill="transparent" style="stroke:#000000;stroke-width:0.5;"/><text fill="#191970" font-family="Aapex" font-size="17" lengthAdjust="spacing" textLength="93.9316" x="124.1875" y="368.2642">kms admin</text><ellipse cx="174.1533" cy="300.9844" fill="#191970" rx="8" ry="8" style="stroke:#000000;stroke-width:0.5;"/><path d="M174.1533,308.9844 L174.1533,335.9844 M161.1533,316.9844 L187.1533,316.9844 M174.1533,335.9844 L161.1533,350.9844 M174.1533,335.9844 L187.1533,350.9844 " fill="transparent" style="stroke:#000000;stroke-width:0.5;"/><text fill="#191970" font-family="Aapex" font-size="17" lengthAdjust="spacing" textLength="93.9316" x="124.1875" y="1215.1704">kms admin</text><ellipse cx="174.1533" cy="1227.6797" fill="#191970" rx="8" ry="8" style="stroke:#000000;stroke-width:0.5;"/><path d="M174.1533,1235.6797 L174.1533,1262.6797 M161.1533,1243.6797 L187.1533,1243.6797 M174.1533,1262.6797 L161.1533,1277.6797 M174.1533,1262.6797 L187.1533,1277.6797 " fill="transparent" style="stroke:#000000;stroke-width:0.5;"/><rect fill="#326CE5" height="33.7891" rx="2.5" ry="2.5" style="stroke:#191970;stroke-width:0.5;" width="128.667" x="234.1191" y="337.4844"/><text fill="#FFFFFF" font-family="Impact" font-size="17" lengthAdjust="spacing" textLength="114.667" x="241.1191" y="360.2642">k8s apiserver</text><rect fill="#326CE5" height="33.7891" rx="2.5" ry="2.5" style="stroke:#191970;stroke-width:0.5;" width="128.667" x="234.1191" y="1199.3906"/><text fill="#FFFFFF" font-family="Impact" font-size="17" lengthAdjust="spacing" textLength="114.667" x="241.1191" y="1222.1704">k8s apiserver</text><rect fill="#326CE5" height="33.7891" rx="2.5" ry="2.5" style="stroke:#191970;stroke-width:0.5;" width="51.2622" x="662.5012" y="337.4844"/><text fill="#FFFFFF" font-family="Impact" font-size="17" lengthAdjust="spacing" textLength="37.2622" x="669.5012" y="360.2642">etcd</text><rect fill="#326CE5" height="33.7891" rx="2.5" ry="2.5" style="stroke:#191970;stroke-width:0.5;" width="51.2622" x="662.5012" y="1199.3906"/><text fill="#FFFFFF" font-family="Impact" font-size="17" lengthAdjust="spacing" textLength="37.2622" x="669.5012" y="1222.1704">etcd</text><rect fill="#326CE5" height="33.7891" rx="2.5" ry="2.5" style="stroke:#191970;stroke-width:0.5;" width="216.1074" x="723.7634" y="337.4844"/><text fill="#FFFFFF" font-family="Impact" font-size="17" lengthAdjust="spacing" textLength="202.1074" x="730.7634" y="360.2642">k8s-kms-plugin (server)</text><rect fill="#326CE5" height="33.7891" rx="2.5" ry="2.5" style="stroke:#191970;stroke-width:0.5;" width="216.1074" x="723.7634" y="1199.3906"/><text fill="#FFFFFF" font-family="Impact" font-size="17" lengthAdjust="spacing" textLength="202.1074" x="730.7634" y="1222.1704">k8s-kms-plugin (server)</text><rect fill="#326CE5" height="33.7891" rx="2.5" ry="2.5" style="stroke:#191970;stroke-width:0.5;" width="136.4448" x="1045.8745" y="337.4844"/><text fill="#FFFFFF" font-family="Impact" font-size="17" lengthAdjust="spacing" textLength="122.4448" x="1052.8745" y="360.2642">pkcs11-device</text><rect fill="#326CE5" height="33.7891" rx="2.5" ry="2.5" style="stroke:#191970;stroke-width:0.5;" width="136.4448" x="1045.8745" y="1199.3906"/><text fill="#FFFFFF" font-family="Impact" font-size="17" lengthAdjust="spacing" textLength="122.4448" x="1052.8745" y="1222.1704">pkcs11-device</text><path d="M10,389.2734 L310.4487,389.2734 L310.4487,396.4063 L300.4487,406.4063 L10,406.4063 L10,389.2734 " fill="#EEEEEE" style="stroke:#000000;stroke-width:1.5;"/><rect fill="transparent" height="794.1172" style="stroke:#000000;stroke-width:1.5;" width="1202.3193" x="10" y="389.2734"/><text fill="#000000" font-family="sans-serif" font-size="13" font-weight="bold" lengthAdjust="spacing" textLength="255.4487" x="25" y="402.3403">KMS v2 &amp; Kubernetes node restart</text><path d="M33,411.4063 L33,481.4063 L721,481.4063 L721,421.4063 L711,411.4063 L33,411.4063 " fill="#FEFFDD" style="stroke:#181818;stroke-width:0.5;"/><path d="M711,411.4063 L711,421.4063 L721,421.4063 L711,411.4063 " fill="#FEFFDD" style="stroke:#181818;stroke-width:0.5;"/><text fill="#000000" font-family="sans-serif" font-size="13" lengthAdjust="spacing" textLength="618.9155" x="44.4191" y="428.4731">After a kubernetes reboot, k8s sends both a first StatusRequest to know which key id is active.</text><text fill="#000000" font-family="sans-serif" font-size="13" lengthAdjust="spacing" textLength="650.1777" x="44.4191" y="443.606">k8s generates a new DEK seed and a corresponding EncryptionRequest in case the key id changed.</text><text fill="#000000" font-family="sans-serif" font-size="13" lengthAdjust="spacing" textLength="652.793" x="44.4191" y="458.7388">k8s sends as many DecryptRequests as their are encrypted DEK seeds in ETCD; preferably it should</text><text fill="#000000" font-family="sans-serif" font-size="13" lengthAdjust="spacing" textLength="578.7539" x="44.4191" y="473.8716">not be more than 2 different DEKs at the same time. This happens during a key rotation.</text><polygon fill="#000000" points="286.4526,519.2031,296.4526,523.2031,286.4526,527.2031,290.4526,523.2031" style="stroke:#000000;stroke-width:1;"/><line style="stroke:#000000;stroke-width:1;" x1="67.0938" x2="292.4526" y1="523.2031" y2="523.2031"/><text fill="#000000" font-family="DejaVu Sans Mono" font-size="13" lengthAdjust="spacing" textLength="148.7065" x="74.0938" y="503.0044">Reboot a kubernetes</text><text fill="#000000" font-family="DejaVu Sans Mono" font-size="13" lengthAdjust="spacing" textLength="86.0933" x="74.0938" y="518.1372">server node</text><path d="M97,536.2031 L97,561.2031 L907,561.2031 L907,546.2031 L897,536.2031 L97,536.2031 " fill="#FEFFDD" style="stroke:#181818;stroke-width:0.5;"/><path d="M897,536.2031 L897,546.2031 L907,546.2031 L897,536.2031 " fill="#FEFFDD" style="stroke:#181818;stroke-width:0.5;"/><text fill="#000000" font-family="sans-serif" font-size="13" lengthAdjust="spacing" textLength="585.5078" x="205.0878" y="553.27">Case: KEK Key Id from the k8s-kms-plugin is the same than before k8s reboot (same KEK)</text><path d="M224.1191,573.3359 L470.7778,573.3359 L470.7778,580.4688 L460.7778,590.4688 L224.1191,590.4688 L224.1191,573.3359 " fill="#EEEEEE" style="stroke:#000000;stroke-width:1.5;"/><rect fill="transparent" height="179.0625" style="stroke:#000000;stroke-width:1.5;" width="968.2002" x="224.1191" y="573.3359"/><text fill="#000000" font-family="sans-serif" font-size="13" font-weight="bold" lengthAdjust="spacing" textLength="201.6587" x="239.1191" y="586.4028">KMS v2 first StatusRequest</text><polygon fill="#000000" points="819.8171,607.6016,829.8171,611.6016,819.8171,615.6016,823.8171,611.6016" style="stroke:#000000;stroke-width:1;"/><line style="stroke:#000000;stroke-width:1;" x1="298.4526" x2="825.8171" y1="611.6016" y2="611.6016"/><text fill="#000000" font-family="DejaVu Sans Mono" font-size="13" lengthAdjust="spacing" textLength="140.8799" x="305.4526" y="606.5356">send StatusRequest</text><polygon fill="#000000" points="1102.0969,651.8672,1112.0969,655.8672,1102.0969,659.8672,1106.0969,655.8672" style="stroke:#000000;stroke-width:1;"/><line style="stroke:#000000;stroke-width:1;" x1="831.8171" x2="1108.0969" y1="655.8672" y2="655.8672"/><text fill="#000000" font-family="DejaVu Sans Mono" font-size="13" lengthAdjust="spacing" textLength="195.6665" x="838.8171" y="635.6685">validate remote KEK, e.g.</text><text fill="#000000" font-family="DejaVu Sans Mono" font-size="13" lengthAdjust="spacing" textLength="180.0132" x="846.6438" y="650.8013">get CKA_ID from TPM/HSM</text><polygon fill="#000000" points="842.8171,681,832.8171,685,842.8171,689,838.8171,685" style="stroke:#000000;stroke-width:1;"/><line style="stroke:#000000;stroke-width:1;" x1="836.8171" x2="1113.0969" y1="685" y2="685"/><text fill="#000000" font-family="DejaVu Sans Mono" font-size="13" lengthAdjust="spacing" textLength="234.7998" x="848.8171" y="679.9341">return KEK status, e.g. CKA_ID</text><polygon fill="#000000" points="309.4526,740.3984,299.4526,744.3984,309.4526,748.3984,305.4526,744.3984" style="stroke:#000000;stroke-width:1;"/><line style="stroke:#000000;stroke-width:1;" x1="303.4526" x2="830.8171" y1="744.3984" y2="744.3984"/><text fill="#000000" font-family="DejaVu Sans Mono" font-size="13" lengthAdjust="spacing" textLength="164.3599" x="315.4526" y="709.0669">return StatusResponse</text><text fill="#000000" font-family="DejaVu Sans Mono" font-size="13" lengthAdjust="spacing" textLength="226.9731" x="323.2793" y="724.1997">{Version:"v2", Healthz: "ok",</text><text fill="#000000" font-family="DejaVu Sans Mono" font-size="13" lengthAdjust="spacing" textLength="485.2529" x="323.2793" y="739.3325">KeyId:&lt;remote KEK ID string, the same than before k8s reboot&gt;}</text><polygon fill="#000000" points="676.1323,776.5313,686.1323,780.5313,676.1323,784.5313,680.1323,780.5313" style="stroke:#000000;stroke-width:1;"/><line style="stroke:#000000;stroke-width:1;" x1="298.4526" x2="682.1323" y1="780.5313" y2="780.5313"/><text fill="#000000" font-family="DejaVu Sans Mono" font-size="13" lengthAdjust="spacing" textLength="172.1865" x="305.4526" y="775.4653">get encrypted resource</text><polygon fill="#000000" points="309.4526,805.6641,299.4526,809.6641,309.4526,813.6641,305.4526,809.6641" style="stroke:#000000;stroke-width:1;"/><line style="stroke:#000000;stroke-width:1;" x1="303.4526" x2="687.1323" y1="809.6641" y2="809.6641"/><text fill="#000000" font-family="DejaVu Sans Mono" font-size="13" lengthAdjust="spacing" textLength="195.6665" x="315.4526" y="804.5981">return encrypted resource</text><path d="M214.1191,824.6641 L290.7432,824.6641 L290.7432,831.7969 L280.7432,841.7969 L214.1191,841.7969 L214.1191,824.6641 " fill="#EEEEEE" style="stroke:#000000;stroke-width:1.5;"/><rect fill="transparent" height="351.7266" style="stroke:#000000;stroke-width:1.5;" width="988.2002" x="214.1191" y="824.6641"/><text fill="#000000" font-family="sans-serif" font-size="13" font-weight="bold" lengthAdjust="spacing" textLength="31.624" x="229.1191" y="837.731">loop</text><text fill="#000000" font-family="sans-serif" font-size="11" font-weight="bold" lengthAdjust="spacing" textLength="760.085" x="305.7432" y="836.8745">[For active KEK and all the old KEK Keys (As many different Key Ids) that still exist in the ETCD DB, do a DecryptRequest.]</text><path d="M224.1191,848.7969 L386.9951,848.7969 L386.9951,855.9297 L376.9951,865.9297 L224.1191,865.9297 L224.1191,848.7969 " fill="#EEEEEE" style="stroke:#000000;stroke-width:1.5;"/><rect fill="transparent" height="194.1953" style="stroke:#000000;stroke-width:1.5;" width="968.2002" x="224.1191" y="848.7969"/><text fill="#000000" font-family="sans-serif" font-size="13" font-weight="bold" lengthAdjust="spacing" textLength="117.876" x="239.1191" y="861.8638">DecryptRequest</text><polygon fill="#000000" points="819.8171,913.3281,829.8171,917.3281,819.8171,921.3281,823.8171,917.3281" style="stroke:#000000;stroke-width:1;"/><line style="stroke:#000000;stroke-width:1;" x1="298.4526" x2="825.8171" y1="917.3281" y2="917.3281"/><text fill="#000000" font-family="DejaVu Sans Mono" font-size="13" lengthAdjust="spacing" textLength="148.7065" x="305.4526" y="881.9966">send DecryptRequest</text><text fill="#000000" font-family="DejaVu Sans Mono" font-size="13" lengthAdjust="spacing" textLength="453.9463" x="313.2793" y="897.1294">{Ciphertext: &lt;base 64 encoded JWE []byte&gt;, KeyId:&lt;string&gt;,</text><text fill="#000000" font-family="DejaVu Sans Mono" font-size="13" lengthAdjust="spacing" textLength="367.853" x="313.2793" y="912.2622">Uid:&lt;string&gt;, Annotations: &lt;map[string][]byte&gt;}</text><polygon fill="#000000" points="1102.0969,957.5938,1112.0969,961.5938,1102.0969,965.5938,1106.0969,961.5938" style="stroke:#000000;stroke-width:1;"/><line style="stroke:#000000;stroke-width:1;" x1="831.8171" x2="1108.0969" y1="961.5938" y2="961.5938"/><text fill="#000000" font-family="DejaVu Sans Mono" font-size="13" lengthAdjust="spacing" textLength="148.7065" x="838.8171" y="941.395">Decrypt(Ciphertext)</text><text fill="#000000" font-family="DejaVu Sans Mono" font-size="13" lengthAdjust="spacing" textLength="250.4531" x="846.6438" y="956.5278">decrypt DEK seed with remote KEK</text><polygon fill="#000000" points="842.8171,986.7266,832.8171,990.7266,842.8171,994.7266,838.8171,990.7266" style="stroke:#000000;stroke-width:1;"/><line style="stroke:#000000;stroke-width:1;" x1="836.8171" x2="1113.0969" y1="990.7266" y2="990.7266"/><text fill="#000000" font-family="DejaVu Sans Mono" font-size="13" lengthAdjust="spacing" textLength="195.6665" x="848.8171" y="985.6606">return decrypted DEK seed</text><polygon fill="#000000" points="309.4526,1030.9922,299.4526,1034.9922,309.4526,1038.9922,305.4526,1034.9922" style="stroke:#000000;stroke-width:1;"/><line style="stroke:#000000;stroke-width:1;" x1="303.4526" x2="830.8171" y1="1034.9922" y2="1034.9922"/><text fill="#000000" font-family="DejaVu Sans Mono" font-size="13" lengthAdjust="spacing" textLength="172.1865" x="315.4526" y="1014.7935">return DecryptResponse</text><text fill="#000000" font-family="DejaVu Sans Mono" font-size="13" lengthAdjust="spacing" textLength="305.2397" x="323.2793" y="1029.9263">{Plaintext:&lt;decrypted DEK seed []byte&gt;}</text><line style="stroke:#000000;stroke-width:1;" x1="298.4526" x2="340.4526" y1="1071.125" y2="1071.125"/><line style="stroke:#000000;stroke-width:1;" x1="340.4526" x2="340.4526" y1="1071.125" y2="1084.125"/><line style="stroke:#000000;stroke-width:1;" x1="299.4526" x2="340.4526" y1="1084.125" y2="1084.125"/><polygon fill="#000000" points="309.4526,1080.125,299.4526,1084.125,309.4526,1088.125,305.4526,1084.125" style="stroke:#000000;stroke-width:1;"/><text fill="#000000" font-family="DejaVu Sans Mono" font-size="13" lengthAdjust="spacing" textLength="187.8398" x="305.4526" y="1066.0591">cache decrypted DEK seed</text><line style="stroke:#000000;stroke-width:1;" x1="298.4526" x2="340.4526" y1="1113.2578" y2="1113.2578"/><line style="stroke:#000000;stroke-width:1;" x1="340.4526" x2="340.4526" y1="1113.2578" y2="1126.2578"/><line style="stroke:#000000;stroke-width:1;" x1="299.4526" x2="340.4526" y1="1126.2578" y2="1126.2578"/><polygon fill="#000000" points="309.4526,1122.2578,299.4526,1126.2578,309.4526,1130.2578,305.4526,1126.2578" style="stroke:#000000;stroke-width:1;"/><text fill="#000000" font-family="DejaVu Sans Mono" font-size="13" lengthAdjust="spacing" textLength="375.6797" x="305.4526" y="1108.1919">generate DEK using decrypted DEK seed from cache</text><line style="stroke:#000000;stroke-width:1;" x1="298.4526" x2="340.4526" y1="1155.3906" y2="1155.3906"/><line style="stroke:#000000;stroke-width:1;" x1="340.4526" x2="340.4526" y1="1155.3906" y2="1168.3906"/><line style="stroke:#000000;stroke-width:1;" x1="299.4526" x2="340.4526" y1="1168.3906" y2="1168.3906"/><polygon fill="#000000" points="309.4526,1164.3906,299.4526,1168.3906,309.4526,1172.3906,305.4526,1168.3906" style="stroke:#000000;stroke-width:1;"/><text fill="#000000" font-family="DejaVu Sans Mono" font-size="13" lengthAdjust="spacing" textLength="195.6665" x="305.4526" y="1150.3247">decrypt resource with DEK</text><text fill="#000000" font-family="sans-serif" font-size="14" lengthAdjust="spacing" textLength="356.1797" x="865.1396" y="17.9951">Kubernetes KMS v2 &amp; k8s-kms-plugin Figure 1 of 1</text><text fill="#888888" font-family="sans-serif" font-size="10" lengthAdjust="spacing" textLength="228.8184" x="496.2505" y="1293.4619">© 2025 Thales Group for Thales Open Source</text><rect fill="transparent" height="191.5938" id="_legend" rx="7.5" ry="7.5" style="stroke:#000000;stroke-width:1;" width="816.146" x="12" y="87.8906"/><text fill="#000000" font-family="DejaVu Sans Mono" font-size="13" lengthAdjust="spacing" textLength="46.96" x="17" y="104.9575">Legend</text><text fill="#000000" font-family="DejaVu Sans Mono" font-size="13" lengthAdjust="spacing" textLength="563.5195" x="17" y="120.0903">CKA_ID (Byte array) PKCS #11 Key identifier for public/private key pairs</text><text fill="#000000" font-family="DejaVu Sans Mono" font-size="13" lengthAdjust="spacing" textLength="203.4932" x="17" y="135.2231">DEK    Data Encryption Key</text><text fill="#000000" font-family="DejaVu Sans Mono" font-size="13" lengthAdjust="spacing" textLength="203.4932" x="17" y="150.356">JWE    JSON Web Encryption</text><text fill="#000000" font-family="DejaVu Sans Mono" font-size="13" lengthAdjust="spacing" textLength="195.6665" x="17" y="165.4888">KEK    Key Encryption Key</text><text fill="#000000" font-family="DejaVu Sans Mono" font-size="13" lengthAdjust="spacing" textLength="219.1465" x="17" y="180.6216">KMS    Key Management System</text><text fill="#000000" font-family="DejaVu Sans Mono" font-size="13" lengthAdjust="spacing" textLength="242.6265" x="17" y="195.7544">HSM    Hardware Security Module</text><text fill="#000000" font-family="DejaVu Sans Mono" font-size="13" lengthAdjust="spacing" textLength="234.7998" x="17" y="210.8872">TPM    Trusted Platform Module</text><text fill="#000000" font-family="DejaVu Sans Mono" font-size="13" lengthAdjust="spacing" textLength="7.8267" x="17" y="226.02"> </text><text fill="#000000" font-family="DejaVu Sans Mono" font-size="13" lengthAdjust="spacing" textLength="688.7461" x="17" y="241.1528">PKCS #11 v3.0: https://docs.oasis-open.org/pkcs11/pkcs11-base/v3.0/pkcs11-base-v3.0.html</text><text fill="#000000" font-family="DejaVu Sans Mono" font-size="13" lengthAdjust="spacing" textLength="586.9995" x="17" y="256.2856">KMS v2: - https://kubernetes.io/docs/tasks/administer-cluster/kms-provider/</text><text fill="#000000" font-family="DejaVu Sans Mono" font-size="13" lengthAdjust="spacing" textLength="743.5327" x="79.6133" y="271.4185">- https://github.com/kubernetes/enhancements/tree/master/keps/sig-auth/3299-kms-v2-improvements</text><!--SRC=[pLVTKjj65BxNKvoIIO0PR1L8qiObp1WR6WeaJ4oIYoJJMKihQsjfLzrT6KWc3zJNw9Frd2F9bea9pGoTAHSOxvwVx_nzPrb_Vgy_wy7wy-TmdWdjtvoTGhyefB12Hn8A_CobbzR1TnkyNuHkgZIZ0PUAs5mgFO54P4u6wukhiOYc4sjA7GzCPYnuZCBXbTG-2DP1QZ7E90XhpQK3ey5XS939cSo2zHyAAoQv02_D9rGiPT3ocSc9r35y3W2EZFOZzKd2zcxzxILP6Se_nDiIHkWGpemsU7TWR2njXMIS8JGwku7mCbLU1b_QlfpyivIK_Cz1dv1MWWTie1zvOzjsg-DJbSXJfUKtRcxuVT1_DXmCZuBWN5Yl8bLWxTlQPohMQfBwWmmJqPQvQMTtv-dWy4bRP9wIuxmGaRzvLUNkfvl7xNJKOTvmjGI99HPwg-yQL_C3XjKNXRnQJZdd-VPI1lVVpZHm5yfZDzwVmVj5w0aTTYp0oTa8PZkObiXU5nvUKtyw3u_mBrSOxMgfSYojHgvmhD0_FoQb3an_TbrbmcdkGb4e5-BX8vOupyg9qf1W-SvF1YDuiBqTq91LZblLUI45zkMYe8-3b4zWBy4pYAW3dlE0xTy0mRuGG0UzTuhAtv6Qb5R2mq9Cv4Cm2JpCXFFyRIyaW_j1OWnI7lpz5-pykFC4BbAHeS5ViHSBXbiVl2gaXf4fRII9NKwP8uAQAhmfa3KIpxcfh-ZFmKd_z-CXR1nSUsOYSRqv3nzEv3Me6DbA9Ge1aA-Y76Sg2WkhPW8rfYXH26KT6niUdl27y08EDPT78QsX6Rx-xTqXVunUlOHtSjmIgIfMQPFJ5SgKl_hsJ6XCJuwuO7JjlCnPuCNeZ3-4ZI-HOc4aez8gZ-8cBklMkJXdcGjRebfCAyPZK7bRX7_DCp3RxVxOWzJxmlN2C3QHwnhXbEiOJ7RNs4bOJ2EtlLr_TCR2oP2KsWSTEkYcFizQ_Tl3NcpiJkTjGgr9Na8lt1GxDCwLLeZLTgACCDkGMyUQ6TR5Xcol-LdOcoYVbkDkPFAMwL3gb9OevGtjMod3N5GcPU52foOTKVeqtDrvzemRTBRJKJcvgbHu6Afk-ey8QDHicbY92UzFYHFYuFz1G9nhGTGDQpZ3mBLP0-5eeiNIRRvqc-CjNu_D5LxE2xA6MmzdIVAIQ8fOBDPGxGP9IjgPj7DNU61dgnMaZsAMepzOX8g6VeCs0eHNay-ZHQVZQ8GuGWWgIP9RuRIPQwF2jTb4MMIJrNhrACHoXj6oT87SkeIElaoOqEOysU9ERM895aaUhSvTQ2H5mEQqd9Gj3Xbwq4-8AmKiyeoQOsJGBPB3ruoE7VhqASeaI5p88LxuqZLhn1kOQdD9gpzAcTzK3CfHRTLCTk639ZCu1T8ACYv0oqjcFYUHKWH69707MClBAAPtuOBD6YUOlGY90Nmg6nSH3kT4nes32YUcAXVwkjbrjJgVewh2E97eP6KUdJSe73aul1WCVu72oWIHZZDqul6jQieiHXUOF9mko8qb44B33WvTWf94gcW6NNX6nqzIhtAC_2B5DAG2N-Cuap5oAuOc6Burc48ChnlCgqCrWSx-ec6nDA-v3ikr-Q2hBk8Q1wkAcrDng_P26mDCMuzN1Ms2unWIQ_8gZylTgLmBFqKubWb5Iycj6W8Rc2xHrcQmHAHBZRYYHvQ4cs2h82dY1YgLy2x5IXQrS29GPIOo5TDUjJAd320sREpkXBe2Uyutwvg3hYVsAwDaget3IbzQpJbpZAOsMTdw1gPsxMeZJJZLGujGVNwB_urXxNjhivsrBNeSPJxzr8CrCyMl7tY17yUzlKL4W04uJ-spTLU9zhyimUFLSslYQmAWD2r60iUmUX4jsI79rG6kq9ohPWOVKKV8y1KNS2myxrd6WHWShRep7MpqwzbTp5NLiMwJWiLPz0hrv9Mg-80CqCZ2y60BOeDJiZpqtHKjkYpnFMsvhCbr7AWYbTRBAz-3FNgsmDF7b0wSovYVRky_Zl6HkB_LLBIguJuN-Org7_I9NvWH7DhAHV6-klfOc_Xovo3K-3OMe3R9JLo_-UTqUualdTQmt6PthrFRhQjSssbHvlUDmJnzhJd0nwJIdBwzhyt3oiY_tSzjlv68i3_kW7shThEjMArqHDmh83AfiAD_PxKfHZCeLJ66hIeq_sJWvpy0]--></g></svg>