<svg xmlns="http://www.w3.org/2000/svg" xmlns:xlink="http://www.w3.org/1999/xlink" contentStyleType="text/css" data-diagram-type="SEQUENCE" height="1577px" preserveAspectRatio="none" style="width:1367px;height:1577px;background:#FFFFFF;" version="1.1" viewBox="0 0 1367 1577" width="1367px" zoomAndPan="magnify"><title>KMS v2 Key Rotation</title><defs/><g><text fill="#000000" font-family="sans-serif" font-size="14" font-weight="bold" lengthAdjust="spacing" textLength="165.4365" x="597.2194" y="45.292">KMS v2 Key Rotation</text><text fill="#000000" font-family="sans-serif" font-size="14" font-weight="bold" lengthAdjust="spacing" textLength="569.0166" x="395.4293" y="61.5889">Kubernetes KMS API v2 - k8s.io/kms/apis/v2 &amp; KMS Plugin for PKCS #11</text><rect fill="#F0F8FF" height="1263.2891" style="stroke:#181818;stroke-width:0.5;" width="432.8577" x="251.9067" y="293.4844"/><text fill="#000000" font-family="sans-serif" font-size="13" font-weight="bold" lengthAdjust="spacing" textLength="83.2749" x="426.6981" y="305.5513">kubernetes</text><rect fill="#FFFFFF" height="1263.2891" style="stroke:#181818;stroke-width:0.5;" width="544.8225" x="780.0527" y="293.4844"/><text fill="#000000" font-family="sans-serif" font-size="13" font-weight="bold" lengthAdjust="spacing" textLength="246.6763" x="929.1259" y="305.5513">kms plugin &amp; PKCS #11 TPM/HSM</text><rect fill="transparent" height="1067.7109" style="stroke:#000000;stroke-width:1.5;" width="1340.8752" x="10" y="389.2734"/><rect fill="transparent" height="680.9844" style="stroke:#000000;stroke-width:1.5;" width="1216.6877" x="124.1875" y="413.4063"/><rect fill="transparent" height="179.0625" style="stroke:#000000;stroke-width:1.5;" width="1084.9685" x="245.9067" y="481.8047"/><rect fill="transparent" height="224.4609" style="stroke:#000000;stroke-width:1.5;" width="1084.9685" x="245.9067" y="762.3984"/><rect fill="transparent" height="341.5938" style="stroke:#000000;stroke-width:1.5;" width="678.7644" x="20" y="1108.3906"/><g><title>k8s admin</title><rect fill="transparent" height="1101.7109" width="8" x="73.0938" y="372.2734"/><line style="stroke:#000000;stroke-width:0.5;stroke-dasharray:5.0,5.0;" x1="77" x2="77" y1="372.2734" y2="1473.9844"/></g><g><title>kms admin</title><rect fill="transparent" height="1101.7109" width="8" x="180.1533" y="372.2734"/><line style="stroke:#000000;stroke-width:0.5;stroke-dasharray:5.0,5.0;" x1="183.1875" x2="183.1875" y1="372.2734" y2="1473.9844"/></g><g><title>k8s apiserver</title><rect fill="transparent" height="1101.7109" width="8" x="316.2402" y="372.2734"/><line style="stroke:#000000;stroke-width:0.5;stroke-dasharray:5.0,5.0;" x1="319.9067" x2="319.9067" y1="372.2734" y2="1473.9844"/></g><g><title>etcd</title><rect fill="transparent" height="1101.7109" width="8" x="651.1333" y="372.2734"/><line style="stroke:#000000;stroke-width:0.5;stroke-dasharray:5.0,5.0;" x1="654.5022" x2="654.5022" y1="372.2734" y2="1473.9844"/></g><g><title>k8s-kms-plugin (server)</title><rect fill="transparent" height="1101.7109" width="8" x="888.1064" y="372.2734"/><line style="stroke:#000000;stroke-width:0.5;stroke-dasharray:5.0,5.0;" x1="892.0527" x2="892.0527" y1="372.2734" y2="1473.9844"/></g><g><title>pkcs11-device</title><rect fill="transparent" height="1101.7109" width="8" x="1248.6528" y="372.2734"/><line style="stroke:#000000;stroke-width:0.5;stroke-dasharray:5.0,5.0;" x1="1252.4304" x2="1252.4304" y1="372.2734" y2="1473.9844"/></g><text fill="#191970" font-family="Aapex" font-size="17" lengthAdjust="spacing" textLength="88.1875" x="30" y="368.2642">k8s admin</text><ellipse cx="77.0938" cy="300.9844" fill="#191970" rx="8" ry="8" style="stroke:#000000;stroke-width:0.5;"/><path d="M77.0938,308.9844 L77.0938,335.9844 M64.0938,316.9844 L90.0938,316.9844 M77.0938,335.9844 L64.0938,350.9844 M77.0938,335.9844 L90.0938,350.9844 " fill="transparent" style="stroke:#000000;stroke-width:0.5;"/><text fill="#191970" font-family="Aapex" font-size="17" lengthAdjust="spacing" textLength="88.1875" x="30" y="1488.7642">k8s admin</text><ellipse cx="77.0938" cy="1501.2734" fill="#191970" rx="8" ry="8" style="stroke:#000000;stroke-width:0.5;"/><path d="M77.0938,1509.2734 L77.0938,1536.2734 M64.0938,1517.2734 L90.0938,1517.2734 M77.0938,1536.2734 L64.0938,1551.2734 M77.0938,1536.2734 L90.0938,1551.2734 " fill="transparent" style="stroke:#000000;stroke-width:0.5;"/><text fill="#191970" font-family="Aapex" font-size="17" lengthAdjust="spacing" textLength="93.9316" x="134.1875" y="368.2642">kms admin</text><ellipse cx="184.1533" cy="300.9844" fill="#191970" rx="8" ry="8" style="stroke:#000000;stroke-width:0.5;"/><path d="M184.1533,308.9844 L184.1533,335.9844 M171.1533,316.9844 L197.1533,316.9844 M184.1533,335.9844 L171.1533,350.9844 M184.1533,335.9844 L197.1533,350.9844 " fill="transparent" style="stroke:#000000;stroke-width:0.5;"/><text fill="#191970" font-family="Aapex" font-size="17" lengthAdjust="spacing" textLength="93.9316" x="134.1875" y="1488.7642">kms admin</text><ellipse cx="184.1533" cy="1501.2734" fill="#191970" rx="8" ry="8" style="stroke:#000000;stroke-width:0.5;"/><path d="M184.1533,1509.2734 L184.1533,1536.2734 M171.1533,1517.2734 L197.1533,1517.2734 M184.1533,1536.2734 L171.1533,1551.2734 M184.1533,1536.2734 L197.1533,1551.2734 " fill="transparent" style="stroke:#000000;stroke-width:0.5;"/><rect fill="#326CE5" height="33.7891" rx="2.5" ry="2.5" style="stroke:#191970;stroke-width:0.5;" width="128.667" x="255.9067" y="337.4844"/><text fill="#FFFFFF" font-family="Impact" font-size="17" lengthAdjust="spacing" textLength="114.667" x="262.9067" y="360.2642">k8s apiserver</text><rect fill="#326CE5" height="33.7891" rx="2.5" ry="2.5" style="stroke:#191970;stroke-width:0.5;" width="128.667" x="255.9067" y="1472.9844"/><text fill="#FFFFFF" font-family="Impact" font-size="17" lengthAdjust="spacing" textLength="114.667" x="262.9067" y="1495.7642">k8s apiserver</text><rect fill="#326CE5" height="33.7891" rx="2.5" ry="2.5" style="stroke:#191970;stroke-width:0.5;" width="51.2622" x="629.5022" y="337.4844"/><text fill="#FFFFFF" font-family="Impact" font-size="17" lengthAdjust="spacing" textLength="37.2622" x="636.5022" y="360.2642">etcd</text><rect fill="#326CE5" height="33.7891" rx="2.5" ry="2.5" style="stroke:#191970;stroke-width:0.5;" width="51.2622" x="629.5022" y="1472.9844"/><text fill="#FFFFFF" font-family="Impact" font-size="17" lengthAdjust="spacing" textLength="37.2622" x="636.5022" y="1495.7642">etcd</text><rect fill="#326CE5" height="33.7891" rx="2.5" ry="2.5" style="stroke:#191970;stroke-width:0.5;" width="216.1074" x="784.0527" y="337.4844"/><text fill="#FFFFFF" font-family="Impact" font-size="17" lengthAdjust="spacing" textLength="202.1074" x="791.0527" y="360.2642">k8s-kms-plugin (server)</text><rect fill="#326CE5" height="33.7891" rx="2.5" ry="2.5" style="stroke:#191970;stroke-width:0.5;" width="216.1074" x="784.0527" y="1472.9844"/><text fill="#FFFFFF" font-family="Impact" font-size="17" lengthAdjust="spacing" textLength="202.1074" x="791.0527" y="1495.7642">k8s-kms-plugin (server)</text><rect fill="#326CE5" height="33.7891" rx="2.5" ry="2.5" style="stroke:#191970;stroke-width:0.5;" width="136.4448" x="1184.4304" y="337.4844"/><text fill="#FFFFFF" font-family="Impact" font-size="17" lengthAdjust="spacing" textLength="122.4448" x="1191.4304" y="360.2642">pkcs11-device</text><rect fill="#326CE5" height="33.7891" rx="2.5" ry="2.5" style="stroke:#191970;stroke-width:0.5;" width="136.4448" x="1184.4304" y="1472.9844"/><text fill="#FFFFFF" font-family="Impact" font-size="17" lengthAdjust="spacing" textLength="122.4448" x="1191.4304" y="1495.7642">pkcs11-device</text><path d="M10,389.2734 L205.0205,389.2734 L205.0205,396.4063 L195.0205,406.4063 L10,406.4063 L10,389.2734 " fill="#EEEEEE" style="stroke:#000000;stroke-width:1.5;"/><rect fill="transparent" height="1067.7109" style="stroke:#000000;stroke-width:1.5;" width="1340.8752" x="10" y="389.2734"/><text fill="#000000" font-family="sans-serif" font-size="13" font-weight="bold" lengthAdjust="spacing" textLength="150.0205" x="25" y="402.3403">KMS v2 Key rotation</text><path d="M124.1875,413.4063 L188.6304,413.4063 L188.6304,420.5391 L178.6304,430.5391 L124.1875,430.5391 L124.1875,413.4063 " fill="#EEEEEE" style="stroke:#000000;stroke-width:1.5;"/><rect fill="transparent" height="680.9844" style="stroke:#000000;stroke-width:1.5;" width="1216.6877" x="124.1875" y="413.4063"/><text fill="#000000" font-family="sans-serif" font-size="13" font-weight="bold" lengthAdjust="spacing" textLength="19.4429" x="139.1875" y="426.4731">alt</text><text fill="#000000" font-family="sans-serif" font-size="11" font-weight="bold" lengthAdjust="spacing" textLength="573.8906" x="203.6304" y="425.6167">[remote KEK rotation detected from last StatusResponse (KeyId changed), rotate DEK seed]</text><polygon fill="#000000" points="880.1064,462.8047,890.1064,466.8047,880.1064,470.8047,884.1064,466.8047" style="stroke:#000000;stroke-width:1;"/><line style="stroke:#000000;stroke-width:1;" x1="184.1533" x2="886.1064" y1="466.8047" y2="466.8047"/><text fill="#000000" font-family="DejaVu Sans Mono" font-size="13" lengthAdjust="spacing" textLength="649.6128" x="191.1533" y="446.606">run k8s-kms-plugin key rotation with a new active KEK and keep old KEK available to</text><text fill="#000000" font-family="DejaVu Sans Mono" font-size="13" lengthAdjust="spacing" textLength="469.5996" x="191.1533" y="461.7388">decrypt previously encrypted data and reencrypt with new KEK</text><path d="M245.9067,481.8047 L617.1128,481.8047 L617.1128,488.9375 L607.1128,498.9375 L245.9067,498.9375 L245.9067,481.8047 " fill="#EEEEEE" style="stroke:#000000;stroke-width:1.5;"/><rect fill="transparent" height="179.0625" style="stroke:#000000;stroke-width:1.5;" width="1084.9685" x="245.9067" y="481.8047"/><text fill="#000000" font-family="sans-serif" font-size="13" font-weight="bold" lengthAdjust="spacing" textLength="326.2061" x="260.9067" y="494.8716">New active Key ID recieved thanks to Status</text><polygon fill="#000000" points="880.1064,516.0703,890.1064,520.0703,880.1064,524.0703,884.1064,520.0703" style="stroke:#000000;stroke-width:1;"/><line style="stroke:#000000;stroke-width:1;" x1="320.2402" x2="886.1064" y1="520.0703" y2="520.0703"/><text fill="#000000" font-family="DejaVu Sans Mono" font-size="13" lengthAdjust="spacing" textLength="140.8799" x="327.2402" y="515.0044">send StatusRequest</text><polygon fill="#000000" points="1240.6528,560.3359,1250.6528,564.3359,1240.6528,568.3359,1244.6528,564.3359" style="stroke:#000000;stroke-width:1;"/><line style="stroke:#000000;stroke-width:1;" x1="892.1064" x2="1246.6528" y1="564.3359" y2="564.3359"/><text fill="#000000" font-family="DejaVu Sans Mono" font-size="13" lengthAdjust="spacing" textLength="195.6665" x="899.1064" y="544.1372">validate remote KEK, e.g.</text><text fill="#000000" font-family="DejaVu Sans Mono" font-size="13" lengthAdjust="spacing" textLength="180.0132" x="906.9331" y="559.27">get CKA_ID from TPM/HSM</text><polygon fill="#000000" points="903.1064,589.4688,893.1064,593.4688,903.1064,597.4688,899.1064,593.4688" style="stroke:#000000;stroke-width:1;"/><line style="stroke:#000000;stroke-width:1;" x1="897.1064" x2="1251.6528" y1="593.4688" y2="593.4688"/><text fill="#000000" font-family="DejaVu Sans Mono" font-size="13" lengthAdjust="spacing" textLength="297.4131" x="909.1064" y="588.4028">return new KEK status, e.g. new CKA_ID</text><polygon fill="#000000" points="331.2402,648.8672,321.2402,652.8672,331.2402,656.8672,327.2402,652.8672" style="stroke:#000000;stroke-width:1;"/><line style="stroke:#000000;stroke-width:1;" x1="325.2402" x2="891.1064" y1="652.8672" y2="652.8672"/><text fill="#000000" font-family="DejaVu Sans Mono" font-size="13" lengthAdjust="spacing" textLength="164.3599" x="337.2402" y="617.5356">return StatusResponse</text><text fill="#000000" font-family="DejaVu Sans Mono" font-size="13" lengthAdjust="spacing" textLength="226.9731" x="345.0669" y="632.6685">{Version:"v2", Healthz: "ok",</text><text fill="#000000" font-family="DejaVu Sans Mono" font-size="13" lengthAdjust="spacing" textLength="258.2798" x="345.0669" y="647.8013">KeyId:&lt;new remote KEK ID string&gt;}</text><line style="stroke:#000000;stroke-width:1;" x1="320.2402" x2="362.2402" y1="734.3984" y2="734.3984"/><line style="stroke:#000000;stroke-width:1;" x1="362.2402" x2="362.2402" y1="734.3984" y2="747.3984"/><line style="stroke:#000000;stroke-width:1;" x1="321.2402" x2="362.2402" y1="747.3984" y2="747.3984"/><polygon fill="#000000" points="331.2402,743.3984,321.2402,747.3984,331.2402,751.3984,327.2402,747.3984" style="stroke:#000000;stroke-width:1;"/><text fill="#000000" font-family="DejaVu Sans Mono" font-size="13" lengthAdjust="spacing" textLength="320.8931" x="327.2402" y="683.9341">generate a new DEK seed (32 random bytes)</text><text fill="#000000" font-family="DejaVu Sans Mono" font-size="13" lengthAdjust="spacing" textLength="281.7598" x="327.2402" y="699.0669">at startup and cache it ; indefinite</text><text fill="#000000" font-family="DejaVu Sans Mono" font-size="13" lengthAdjust="spacing" textLength="297.4131" x="327.2402" y="714.1997">retention until kube-apiserver restart</text><text fill="#000000" font-family="DejaVu Sans Mono" font-size="13" lengthAdjust="spacing" textLength="117.3999" x="327.2402" y="729.3325">or KEK rotation</text><path d="M245.9067,762.3984 L515.7407,762.3984 L515.7407,769.5313 L505.7407,779.5313 L245.9067,779.5313 L245.9067,762.3984 " fill="#EEEEEE" style="stroke:#000000;stroke-width:1.5;"/><rect fill="transparent" height="224.4609" style="stroke:#000000;stroke-width:1.5;" width="1084.9685" x="245.9067" y="762.3984"/><text fill="#000000" font-family="sans-serif" font-size="13" font-weight="bold" lengthAdjust="spacing" textLength="224.834" x="260.9067" y="775.4653">KMS v2 encrypt new DEK Seed</text><polygon fill="#000000" points="880.1064,811.7969,890.1064,815.7969,880.1064,819.7969,884.1064,815.7969" style="stroke:#000000;stroke-width:1;"/><line style="stroke:#000000;stroke-width:1;" x1="320.2402" x2="886.1064" y1="815.7969" y2="815.7969"/><text fill="#000000" font-family="DejaVu Sans Mono" font-size="13" lengthAdjust="spacing" textLength="148.7065" x="327.2402" y="795.5981">send EncryptRequest</text><text fill="#000000" font-family="DejaVu Sans Mono" font-size="13" lengthAdjust="spacing" textLength="540.0396" x="335.0669" y="810.731">{Plaintext:&lt;new DEK seed as base64 encoded JWE []byte&gt;, Uid:&lt;string&gt;}</text><polygon fill="#000000" points="1240.6528,856.0625,1250.6528,860.0625,1240.6528,864.0625,1244.6528,860.0625" style="stroke:#000000;stroke-width:1;"/><line style="stroke:#000000;stroke-width:1;" x1="892.1064" x2="1246.6528" y1="860.0625" y2="860.0625"/><text fill="#000000" font-family="DejaVu Sans Mono" font-size="13" lengthAdjust="spacing" textLength="140.8799" x="899.1064" y="839.8638">Encrypt(Plaintext)</text><text fill="#000000" font-family="DejaVu Sans Mono" font-size="13" lengthAdjust="spacing" textLength="313.0664" x="906.9331" y="854.9966">encrypt new DEK seed with new remote KEK</text><polygon fill="#000000" points="903.1064,900.3281,893.1064,904.3281,903.1064,908.3281,899.1064,904.3281" style="stroke:#000000;stroke-width:1;"/><line style="stroke:#000000;stroke-width:1;" x1="897.1064" x2="1251.6528" y1="904.3281" y2="904.3281"/><text fill="#000000" font-family="DejaVu Sans Mono" font-size="13" lengthAdjust="spacing" textLength="328.7197" x="909.1064" y="884.1294">return new encrypted DEK seed &amp; new KEK ID</text><text fill="#000000" font-family="DejaVu Sans Mono" font-size="13" lengthAdjust="spacing" textLength="211.3198" x="916.9331" y="899.2622">must not re-use old key_ids</text><polygon fill="#000000" points="331.2402,974.8594,321.2402,978.8594,331.2402,982.8594,327.2402,978.8594" style="stroke:#000000;stroke-width:1;"/><line style="stroke:#000000;stroke-width:1;" x1="325.2402" x2="891.1064" y1="978.8594" y2="978.8594"/><text fill="#000000" font-family="DejaVu Sans Mono" font-size="13" lengthAdjust="spacing" textLength="172.1865" x="337.2402" y="928.395">return EncryptResponse</text><text fill="#000000" font-family="DejaVu Sans Mono" font-size="13" lengthAdjust="spacing" textLength="367.853" x="345.0669" y="943.5278">{Ciphertext:&lt;new encrypted DEK seed as []byte&gt;,</text><text fill="#000000" font-family="DejaVu Sans Mono" font-size="13" lengthAdjust="spacing" textLength="289.5864" x="345.0669" y="958.6606">KeyId: &lt;new remote KEK ID as string&gt;,</text><text fill="#000000" font-family="DejaVu Sans Mono" font-size="13" lengthAdjust="spacing" textLength="133.0532" x="345.0669" y="973.7935">Annotations:... }</text><path d="M277,998.8594 L277,1053.8594 L696,1053.8594 L696,1008.8594 L686,998.8594 L277,998.8594 " fill="#FEFFDD" style="stroke:#181818;stroke-width:0.5;"/><path d="M686,998.8594 L686,1008.8594 L696,1008.8594 L686,998.8594 " fill="#FEFFDD" style="stroke:#181818;stroke-width:0.5;"/><text fill="#000000" font-family="sans-serif" font-size="13" lengthAdjust="spacing" textLength="366.6152" x="297.0551" y="1015.9263">Data encrypted with the old KEK is marked stale by k8s.</text><text fill="#000000" font-family="sans-serif" font-size="13" lengthAdjust="spacing" textLength="331.9697" x="297.0551" y="1031.0591">New active DEK can Encrypt and Decrypt, whereas</text><text fill="#000000" font-family="sans-serif" font-size="13" lengthAdjust="spacing" textLength="169.6221" x="297.0551" y="1046.1919">old DEK can only Decrypt.</text><path d="M236,1064.2578 L236,1089.2578 L975,1089.2578 L975,1074.2578 L965,1064.2578 L236,1064.2578 " fill="#FEFFDD" style="stroke:#181818;stroke-width:0.5;"/><path d="M965,1064.2578 L965,1074.2578 L975,1074.2578 L965,1064.2578 " fill="#FEFFDD" style="stroke:#181818;stroke-width:0.5;"/><text fill="#000000" font-family="sans-serif" font-size="13" lengthAdjust="spacing" textLength="502.7534" x="349.75" y="1081.3247">New active KEK can Encrypt and Decrypt, whereas old KEK can only Decrypt.</text><path d="M20,1108.3906 L96.624,1108.3906 L96.624,1115.5234 L86.624,1125.5234 L20,1125.5234 L20,1108.3906 " fill="#EEEEEE" style="stroke:#000000;stroke-width:1.5;"/><rect fill="transparent" height="341.5938" style="stroke:#000000;stroke-width:1.5;" width="678.7644" x="20" y="1108.3906"/><text fill="#000000" font-family="sans-serif" font-size="13" font-weight="bold" lengthAdjust="spacing" textLength="31.624" x="35" y="1121.4575">loop</text><text fill="#000000" font-family="sans-serif" font-size="11" font-weight="bold" lengthAdjust="spacing" textLength="455.4688" x="111.624" y="1120.6011">[For all encrypted objects with the old DEK, reencrypt with new DEK key]</text><path d="M43,1130.5234 L43,1170.5234 L688,1170.5234 L688,1140.5234 L678,1130.5234 L43,1130.5234 " fill="#FEFFDD" style="stroke:#181818;stroke-width:0.5;"/><path d="M678,1130.5234 L678,1140.5234 L688,1140.5234 L678,1130.5234 " fill="#FEFFDD" style="stroke:#181818;stroke-width:0.5;"/><text fill="#000000" font-family="sans-serif" font-size="13" lengthAdjust="spacing" textLength="549.4595" x="84.5863" y="1147.5903">One way of triggering a reencryption with the new active DEK is to trigger an empty</text><text fill="#000000" font-family="sans-serif" font-size="13" lengthAdjust="spacing" textLength="321.6357" x="88.7186" y="1162.7231">(no modification) kubectl patch secret command.</text><polygon fill="#000000" points="308.2402,1223.1875,318.2402,1227.1875,308.2402,1231.1875,312.2402,1227.1875" style="stroke:#000000;stroke-width:1;"/><line style="stroke:#000000;stroke-width:1;" x1="77.0938" x2="314.2402" y1="1227.1875" y2="1227.1875"/><text fill="#000000" font-family="DejaVu Sans Mono" font-size="13" lengthAdjust="spacing" textLength="211.3198" x="84.0938" y="1191.856">kubectl patch all encrypted</text><text fill="#000000" font-family="DejaVu Sans Mono" font-size="13" lengthAdjust="spacing" textLength="211.3198" x="84.0938" y="1206.9888">etcd objects (like secrets)</text><text fill="#000000" font-family="DejaVu Sans Mono" font-size="13" lengthAdjust="spacing" textLength="180.0132" x="84.0938" y="1222.1216">to trigger reencryption</text><polygon fill="#000000" points="643.1333,1252.3203,653.1333,1256.3203,643.1333,1260.3203,647.1333,1256.3203" style="stroke:#000000;stroke-width:1;"/><line style="stroke:#000000;stroke-width:1;" x1="320.2402" x2="649.1333" y1="1256.3203" y2="1256.3203"/><text fill="#000000" font-family="DejaVu Sans Mono" font-size="13" lengthAdjust="spacing" textLength="187.8398" x="327.2402" y="1251.2544">Get an encrypted object.</text><polygon fill="#000000" points="331.2402,1266.3203,321.2402,1270.3203,331.2402,1274.3203,327.2402,1270.3203" style="stroke:#000000;stroke-width:1;"/><line style="stroke:#000000;stroke-width:1;" x1="325.2402" x2="654.1333" y1="1270.3203" y2="1270.3203"/><line style="stroke:#000000;stroke-width:1;" x1="320.2402" x2="362.2402" y1="1299.4531" y2="1299.4531"/><line style="stroke:#000000;stroke-width:1;" x1="362.2402" x2="362.2402" y1="1299.4531" y2="1312.4531"/><line style="stroke:#000000;stroke-width:1;" x1="321.2402" x2="362.2402" y1="1312.4531" y2="1312.4531"/><polygon fill="#000000" points="331.2402,1308.4531,321.2402,1312.4531,331.2402,1316.4531,327.2402,1312.4531" style="stroke:#000000;stroke-width:1;"/><text fill="#000000" font-family="DejaVu Sans Mono" font-size="13" lengthAdjust="spacing" textLength="164.3599" x="327.2402" y="1294.3872">Decrypt with old DEK.</text><polygon fill="#000000" points="88.0938,1337.5859,78.0938,1341.5859,88.0938,1345.5859,84.0938,1341.5859" style="stroke:#000000;stroke-width:1;"/><line style="stroke:#000000;stroke-width:1;" x1="82.0938" x2="319.2402" y1="1341.5859" y2="1341.5859"/><text fill="#000000" font-family="DejaVu Sans Mono" font-size="13" lengthAdjust="spacing" textLength="125.2266" x="94.0938" y="1336.52">Decrypted object</text><polygon fill="#000000" points="308.2402,1366.7188,318.2402,1370.7188,308.2402,1374.7188,312.2402,1370.7188" style="stroke:#000000;stroke-width:1;"/><line style="stroke:#000000;stroke-width:1;" x1="77.0938" x2="314.2402" y1="1370.7188" y2="1370.7188"/><text fill="#000000" font-family="DejaVu Sans Mono" font-size="13" lengthAdjust="spacing" textLength="109.5732" x="84.0938" y="1365.6528">Patched object</text><line style="stroke:#000000;stroke-width:1;" x1="320.2402" x2="362.2402" y1="1399.8516" y2="1399.8516"/><line style="stroke:#000000;stroke-width:1;" x1="362.2402" x2="362.2402" y1="1399.8516" y2="1412.8516"/><line style="stroke:#000000;stroke-width:1;" x1="321.2402" x2="362.2402" y1="1412.8516" y2="1412.8516"/><polygon fill="#000000" points="331.2402,1408.8516,321.2402,1412.8516,331.2402,1416.8516,327.2402,1412.8516" style="stroke:#000000;stroke-width:1;"/><text fill="#000000" font-family="DejaVu Sans Mono" font-size="13" lengthAdjust="spacing" textLength="219.1465" x="327.2402" y="1394.7856">Encrypt with new active DEK.</text><polygon fill="#000000" points="643.1333,1437.9844,653.1333,1441.9844,643.1333,1445.9844,647.1333,1441.9844" style="stroke:#000000;stroke-width:1;"/><line style="stroke:#000000;stroke-width:1;" x1="320.2402" x2="649.1333" y1="1441.9844" y2="1441.9844"/><text fill="#000000" font-family="DejaVu Sans Mono" font-size="13" lengthAdjust="spacing" textLength="172.1865" x="327.2402" y="1436.9185">Store encrypted object</text><text fill="#000000" font-family="sans-serif" font-size="14" lengthAdjust="spacing" textLength="356.1797" x="1003.6956" y="17.9951">Kubernetes KMS v2 &amp; k8s-kms-plugin Figure 1 of 1</text><text fill="#888888" font-family="sans-serif" font-size="10" lengthAdjust="spacing" textLength="228.8184" x="565.5284" y="1567.0557">© 2025 Thales Group for Thales Open Source</text><rect fill="transparent" height="191.5938" id="_legend" rx="7.5" ry="7.5" style="stroke:#000000;stroke-width:1;" width="816.146" x="12" y="87.8906"/><text fill="#000000" font-family="DejaVu Sans Mono" font-size="13" lengthAdjust="spacing" textLength="46.96" x="17" y="104.9575">Legend</text><text fill="#000000" font-family="DejaVu Sans Mono" font-size="13" lengthAdjust="spacing" textLength="563.5195" x="17" y="120.0903">CKA_ID (Byte array) PKCS #11 Key identifier for public/private key pairs</text><text fill="#000000" font-family="DejaVu Sans Mono" font-size="13" lengthAdjust="spacing" textLength="203.4932" x="17" y="135.2231">DEK    Data Encryption Key</text><text fill="#000000" font-family="DejaVu Sans Mono" font-size="13" lengthAdjust="spacing" textLength="203.4932" x="17" y="150.356">JWE    JSON Web Encryption</text><text fill="#000000" font-family="DejaVu Sans Mono" font-size="13" lengthAdjust="spacing" textLength="195.6665" x="17" y="165.4888">KEK    Key Encryption Key</text><text fill="#000000" font-family="DejaVu Sans Mono" font-size="13" lengthAdjust="spacing" textLength="219.1465" x="17" y="180.6216">KMS    Key Management System</text><text fill="#000000" font-family="DejaVu Sans Mono" font-size="13" lengthAdjust="spacing" textLength="242.6265" x="17" y="195.7544">HSM    Hardware Security Module</text><text fill="#000000" font-family="DejaVu Sans Mono" font-size="13" lengthAdjust="spacing" textLength="234.7998" x="17" y="210.8872">TPM    Trusted Platform Module</text><text fill="#000000" font-family="DejaVu Sans Mono" font-size="13" lengthAdjust="spacing" textLength="7.8267" x="17" y="226.02"> </text><text fill="#000000" font-family="DejaVu Sans Mono" font-size="13" lengthAdjust="spacing" textLength="688.7461" x="17" y="241.1528">PKCS #11 v3.0: https://docs.oasis-open.org/pkcs11/pkcs11-base/v3.0/pkcs11-base-v3.0.html</text><text fill="#000000" font-family="DejaVu Sans Mono" font-size="13" lengthAdjust="spacing" textLength="586.9995" x="17" y="256.2856">KMS v2: - https://kubernetes.io/docs/tasks/administer-cluster/kms-provider/</text><text fill="#000000" font-family="DejaVu Sans Mono" font-size="13" lengthAdjust="spacing" textLength="743.5327" x="79.6133" y="271.4185">- https://github.com/kubernetes/enhancements/tree/master/keps/sig-auth/3299-kms-v2-improvements</text><!--SRC=[pLVjRjis5FslfxZBq2O1Odj9zjMi3P0cwPObQOEvstwimq1Brp9dYTH8ocbQx87s6dko7L8VbXodMO4CM7zKCNbvFyuzzr3QVFQW_pQZpMVFw2eJolruUK57HS7221Kp5NZcxDXO-cY73vkXdKiLiY4x4uc-bYgbgSWiHvlBhOc8vwdHfKgETQODELHXiSNAHT4ciHAJZ4aOewyjQKKMnL762ywYpKyA8z9Sa6Fz3WTBZZenCqvP9VG-8dgXbHlBTqox-_MlbzxB2VykVYffZ81qgPN6tdDj4ZPL9fCCgVcrbGolPz9nz6StbkK_IlRWlu-EVAQLuVFWu2XssdJzLiiNSieNKl47TbRYVdhqvEJuv4KKNGdZP2mBzBvx-b8cIgOpzpm345sRLJ_xUryUdtxHDMaXESiB4RlLhGgxhrQNkt3KPQw4wgKKB9RdrkyreTg5aDQHAFXj7_A0yzsjZ1wUpdxWNai7DZwSmuVDqFdim5YYyyinBVRed6_e1-s4arfLw-M4ZO8ws61oT7NcpGOq_zeEfHxDSpiIXRGZB3uE5bTPcKf5KpJiwlnuJ9_kxaP-hAfGdNvynm9CNBRmysWMLkZf56iK-vu_2oDrk994Y8K41eW-AAfuBsHQ6gP7XKZv4UafFSg4TU7Nqv5tU1XDjOR8qTz_qTvdUr_Gwvd8uF1RiAy8wTOBhmfMDDQbYTdhoKLGXQWM1wSBwCJK1MpgBV_dyVdHRsSdjFNynWNj4JVRRVa1L9b0d-HK8W4VgoWdcOn7XP4BWHDpM1H26XkSdPoUXuTmWavLR6uAtmxl9cn___DfU8nVlQIVUT8ngJfMdVP1rnps-DMxbq81dXnvqVZ6Eiw3mNVZo_0G9hc6gDAOuz981tETb3LPNby5czUcnB74NoeEHULTa_1VYy1YV_ZP0SsSA-p1Q9Jes0wriD8EDC0UQfEEYdbiTtVhns0YB8_yeUx2m2yCPoxFEemz01SRl_EM9fwQFih82Ji7GvDSAebSpI3EVCvc5AXZz09zCQFWh_ctz9TADoidmrZd7TSZLZD_RNhSuDymZt9HkUJ2ZgnC1w9qiz7-tfCdWQ2BlO7CVQZgI1Y6Yat_aUICcxibaI8DDoPZGYpzFoGdO2syMDC6PfX2RpP8M3_HehURztPpx8RjYNwBpROX6xZdC4iSheMcYSNougd3GAJOBDYqeR1W5kiFi8kJOEV_22Q-QOWRTJD0UhNuF5uo7QCnmWWXgUbqUcSwNUNQglBQRgeiidJzkNeK4bwWsc1TG5jxsVaVQH2qZfwRhfu7V3D7XdEeOH2BPfyIm1dxWPuQZTSXi9h6s2hj3smBhIpJ5loT9HHZ0b9EjdUginmKop8dlK7o7QF1OLqJ7P0frQfipplvqJNcZGGfllOKa8igFO7Yvim5wIof5XP2Pk4bpsbwen8E8aU50J2wjDaDy0XBg2Jn6kezO4whnIgAZm5VKI_X2hcNdV383gfkE9PuVuJwe-wvzM4hN7gdGyaDhtfrMz-V1adCfdMt3rQsE8MUuiX2P3Bno2xxj4CyJ8Sec59spOKJEbLpxfPJxwg7FxlIgAPsiY6ZsgrVh7n-8BTbUQsp5O8Wk_S_uKi2xJpOMEnjxFXhFdEpTmUqeUVu-IPSHMV9mLCViSD256ETmHl_uP-z389Etern9oD8AXkFMKMXXfEqjRz7-4P8WDG4rxFTVgE4yzKRXtPxSiGYdZ59Hz-G19-ck2oShmKr-biRr2pnoCYBpg1L4cGVdC0GSjMTf7MqgWUoOM6JuNXrQkwXKNsbrpmAUEFwbShnMrTXsjODWV3NvfUV-w0wmOf_S_ZbLm_2uGxzAD64jP2l8sGTTwiDjkrZhrOJuhO3jkpknr1pERojnySjPy4IXCrnXvFINiK69LZdbG5AyfjCxCUnjqMpGzzZMSpOBF5Sam-GRM1i-Knh20sx6k10_2EbQeBOW-5mIBU9llpLsrBUf_QKQslO2NSJAWblYSiS0_XkngrQIakvC7DiWQpGpCbDU7T7FXsXyvN5eiKZ3CL9fQix-5vZmoW5DC-IrbGh26rjCxm_sxRJB_lgVc_KfewxO_OKuaBZ3Vq5vb5aMGSMFVaTLvljmtFYHNNDnU1BdDVlo-kBQj5_fPYknOt_u42ZqvHzjo50hTVsNlD1LHzn6QwI-Xog9yuBl6Y3ALjAKwuJV2_4WI_RGNfYb-6DmCKpi306W_6DbES0RNXR85VvtZ_Un-QD2iKq46rbSivr1Ekdl9DZjwoxHRd6vbjseQYL9lJ94cpxoVuxjQzfK85RTtFuuQFBKsqozm9tvG6xstnjQgUhX5hsV7WlQcEy-_8jqA9LbS3p7m00]--></g></svg>